<?xml version="1.0" encoding="utf-8" ?><svg xmlns="http://www.w3.org/2000/svg" xmlns:xlink="http://www.w3.org/1999/xlink" width="1254" height="1254" viewBox="0 0 1254 1254"><path fill="#1C1917" d="M0 0L1254 0L1254 1254L0 1254L0 0Z"/><path fill="#EA9B27" d="M870.719 157.614C890.696 155.237 915.925 159.125 934.572 166.146C970.694 179.613 999.82 207.139 1015.31 242.443C1030.7 277.527 1031.67 317.261 1017.99 353.049C990.653 423.925 916.467 461.802 843.654 438.624C838.853 437.096 834.151 435.206 829.463 433.367C807.657 443.794 784.108 456.713 762.373 467.895L777.283 391.854L634.272 343.025C604.041 332.646 573.759 322.178 543.493 312.025C519.056 303.827 495.006 304.667 472.293 317.352C465.781 320.988 459.3 326.831 452.867 329.925C444.619 333.891 432.419 337.222 423.374 339.384C387.003 348.077 348.562 351.788 312.394 339.8C273.292 326.839 247.804 301.809 229.305 265.862C249.843 280.3 259.915 286.246 283.549 295.306C322.582 308.288 365.008 306.599 402.885 290.555C437.849 276.063 457.934 261.88 499.119 262.312C545.672 261.758 585.387 288.279 629.49 298.514C663.826 306.483 699.251 299.606 724.342 274.183C659.469 297.226 605.195 259.495 546.704 238.975C483.549 216.82 430.575 238.025 374.318 265.662C400.726 233.763 425.448 211.209 465.816 198.081C551.571 168.279 616.13 249.207 702.506 230.417C770.177 215.697 797.992 164.518 870.719 157.614Z"/><path fill="#C94B22" d="M879.95 204.145C887.566 203.081 900.32 204.232 907.757 205.911C933.99 211.834 954.344 226.056 968.724 248.689C982.674 270.778 987.238 297.518 981.404 322.983C975.556 348.395 959.796 370.415 937.629 384.148C914.345 398.486 889.461 401.385 863.105 395.185C857.413 393.693 851.89 391.623 846.619 389.007C831.454 397.33 814.43 405.753 798.993 413.862C803.454 396.487 807.712 379.061 811.765 361.587C800.602 345.418 793.794 331.088 791.689 311.166C789.083 284.901 797.038 258.679 813.799 238.29C830.982 217.406 853.386 206.836 879.95 204.145Z"/><path fill="#EFDEC4" d="M373.84 614.01C375.18 616.444 392.21 760.533 393.445 773.363C457.628 760.592 522.073 746.322 586.175 733.985C579.08 745.797 564.307 765.34 555.806 777.332L498.524 858.438C490.627 869.701 482.27 881.286 474.69 892.719C409.583 855.997 344.863 816.929 279.781 779.83L279.809 747.099C290.432 731.264 302.4 714.872 313.453 699.231L373.84 614.01Z"/><path fill="#C94B22" d="M837.406 509.149C839.337 510.524 887.724 598.038 892.699 607.077L964.535 560.106C994.751 540.414 1024.68 515.994 1063.28 531.594C1077.2 537.221 1086.72 546.306 1097.02 556.831C1089.34 563.281 1077.76 571.488 1069.55 577.737L1013.78 620.353C985.637 641.35 957.754 664.579 929.856 686.012C919.743 693.781 909.884 702.059 899.655 709.812C891.601 715.923 882.748 719.512 872.448 717.624C855.835 714.578 846.232 700.887 837.604 687.768C832.767 680.413 827.758 673.348 822.877 666.187L772.331 592.232C793.907 568.506 819.672 535.317 837.406 509.149Z"/><path fill="#C94B22" d="M502.223 334.677C518.436 332.407 522.809 335.55 537.874 340.864L563.657 349.74L629.796 372.609C644.153 377.601 659.396 383.222 673.841 387.747C656.068 414.74 634.039 444.137 615.269 470.914C608.108 466.834 592.673 460.362 584.645 456.721L523.598 429.001C492.785 453.517 462.546 479.042 432.061 503.975C424.585 510.09 415.693 518.457 407.665 523.396C399.359 528.454 390.15 531.849 380.548 533.391C354.243 537.795 330.48 529.629 309.175 514.46L424.959 406.076L473.78 360.601C482.524 352.506 493.208 342.125 502.223 334.677Z"/><path fill="#EA9B27" d="M673.841 387.747C696.98 396.273 721.477 403.738 744.908 411.925C738.7 446.398 733.072 481.862 726.507 516.104C676.063 567.317 621.487 613.048 568.162 660.82C549.471 649.56 524.545 635.49 506.82 623.686L615.269 470.914C634.039 444.137 656.068 414.74 673.841 387.747Z"/><path fill="#C94B22" d="M666.295 843.162C678.826 843.611 691.916 843.117 704.503 843.306C743.282 843.888 783.422 842.348 822.056 843.563C817.174 852.253 810.979 860.138 803.691 866.938C795.611 874.511 782.761 884.086 773.871 891.111L723.839 930.894L544.295 1073.18C529.304 1040.36 519.939 1004.33 540.696 972.143C550.699 956.633 567.192 942.592 580.425 929.615C603.6 907.013 626.902 884.541 650.33 862.201C653.532 859.135 668.109 846.562 668.522 843.831L666.295 843.162Z"/><path fill="#EA9B27" d="M665.664 689.878C697.752 711.528 732.848 733.837 765.492 754.818L792.634 772.205C795.833 774.258 799.115 776.476 802.313 778.489C825.809 793.279 834.123 818.075 822.056 843.563C783.422 842.348 743.282 843.888 704.503 843.306C691.916 843.117 678.826 843.611 666.295 843.162C653.065 843.43 639.447 843.449 626.208 843.292C598.508 842.964 570.533 843.791 542.863 843.19C562.422 814.586 582.173 786.114 602.116 757.776C607.411 750.198 623.427 725.9 628.911 720.201C636.048 712.783 656.599 697.505 665.664 689.878Z"/><path fill="#C94B22" d="M347.281 851.479C355.632 855.584 371.314 865.505 379.858 870.531L446.093 909.509L267.19 1086.92C252.882 1101.07 236.435 1116.48 222.887 1130.98C212.66 1098 206.416 1057.79 216.932 1023.88C221.355 1009.62 234.724 994.2 243.986 982.309L267.213 952.536C293.709 918.697 320.398 885.011 347.281 851.479Z"/><path fill="#C94B22" d="M399.118 594.292C416.524 603.661 436.081 615.646 453.344 625.698C497.916 651.347 541.867 678.059 585.161 705.81C575.762 708.133 564.494 710.188 554.887 712.201L415.935 741.357C412.445 709.427 408.688 677.525 404.666 645.657C402.818 630.523 399.831 609.324 399.118 594.292Z"/><path fill="#EA9B27" d="M829.751 463.599C829.853 463.951 829.955 464.302 830.057 464.653C823.25 478.537 810.211 498.567 801.802 511.351C752.179 586.788 690.559 642.8 617.178 694.241L602.783 684.28C599.066 681.979 594.918 678.97 591.27 676.452C639.972 636.278 686.917 594.019 731.973 549.793C747.712 533.981 763.164 517.887 778.323 501.519C783.531 495.866 794.41 482.971 799.292 478.43C802.339 475.595 824.179 466.157 829.751 463.599Z"/><path fill="#EA9B27" d="M263.01 363.112C265.848 363.973 269.999 365.654 272.807 366.811C322.058 387.103 369.738 380.988 419.635 366.948C413.725 372.84 407.26 378.662 401.109 384.342C392.349 392.6 380.689 404.207 371.426 411.514C363.953 417.409 345.161 415.806 336.006 413.924C305.827 407.721 280 388.644 263.01 363.112Z"/></svg>