<?xml version="1.0" encoding="utf-8" ?><svg xmlns="http://www.w3.org/2000/svg" xmlns:xlink="http://www.w3.org/1999/xlink" width="2172" height="724" viewBox="0 0 2172 724"><path fill="#1C1917" d="M0 0L2172 0L2172 724L0 724L0 0Z"/><path fill="#EFDEC4" d="M1581.4 295.891C1597.22 294.74 1621.02 295.943 1637.77 295.562C1655.72 296.024 1675.61 294.48 1693.27 296.583C1699.87 297.369 1732.94 326.359 1733.42 333.252C1735.02 355.94 1734.3 379.754 1734.27 402.456L1734.25 541.94C1718.87 547.818 1703.42 553.493 1687.9 558.962L1672.9 564.076L1672.91 501.354C1641.86 501.485 1610.81 501.412 1579.76 501.133C1571.03 495.253 1550.92 476.874 1543.57 468.479C1542.17 466.874 1541.43 460.48 1541.46 457.704C1541.86 416.845 1539.77 371.919 1542.46 331.591C1542.78 326.797 1575.52 299.196 1581.4 295.891Z"/><path fill="#1C1917" d="M1609.71 346.868L1666.23 346.882C1668.96 349.651 1670.38 351.531 1672.68 354.58L1672.89 412.253C1672.91 421.71 1673.12 431.492 1672.67 440.944C1672.43 446.016 1669.65 447.542 1665.67 450.86C1665.19 450.951 1664.74 451.04 1664.26 451.063C1654.43 451.531 1611.66 453.432 1605.96 447.983C1600.39 442.666 1602.76 365.967 1602.79 353.926C1604.31 352.063 1607.88 348.699 1609.71 346.868Z"/><path fill="#EFDEC4" d="M1165.72 295.489C1193.14 295.429 1220.56 295.527 1247.97 295.783C1249.67 296.961 1251.34 298.18 1252.97 299.44C1259.98 304.853 1285.6 325.846 1286.16 333.144C1287.59 351.95 1287.02 373.808 1286.99 392.859L1286.91 501.176L1227.1 501.292L1227.08 483.904C1221.86 488.321 1212.84 496.29 1206.63 498.27C1188.44 504.068 1153.16 501.373 1133 501.278C1125.61 495.869 1118.86 489.466 1112.07 483.3C1101.54 474.025 1094.2 470.789 1095.1 455.286C1095.84 442.476 1093.46 423.927 1096.74 411.457C1098.14 406.154 1126.04 383.837 1132.89 381.009C1161.71 373.322 1194.89 377.113 1223.37 369.609C1226.92 368.675 1225.62 352.298 1225.5 349.133C1223.92 347.243 1221.22 344.719 1219.4 342.911C1206.88 343.045 1194.07 342.227 1181.59 342.645C1164.52 343.218 1159.88 341.684 1160.19 359.855L1100.72 359.921C1100.69 349.395 1100.76 338.868 1100.92 328.342C1112.97 317.5 1124.71 306.389 1137.05 295.852C1146.6 295.622 1156.16 295.502 1165.72 295.489Z"/><path fill="#1C1917" d="M1221.54 413.369C1222.98 412.985 1223.32 413.267 1224.8 413.804C1226.61 418.797 1225.76 438.796 1225.64 445.048C1223.2 447.853 1219.45 451.008 1216.61 453.55C1199.07 453.936 1180.53 453.691 1162.91 453.748C1160.8 452.237 1157.31 449.26 1157.2 446.434C1156.93 439.314 1155.01 423.673 1164.89 421.901C1183.53 418.555 1202.72 416.157 1221.54 413.369Z"/><path fill="#EFDEC4" d="M869.736 243.433C890.294 239.915 910.785 236.014 931.199 231.734C930.929 254.647 931.184 278.053 931.191 301.006C934.893 302.381 938.764 299.34 943.898 301.999C962.066 292.023 1001.63 295.377 1023.62 295.94C1032.71 301.804 1051.51 319.171 1058.91 326.915C1064.6 332.877 1062.64 379.153 1062.62 389.194L1062.51 501.165L1000.71 501.181L1000.67 353.869C998.838 351.653 996.253 348.997 994.263 346.826L940.129 346.859C937.146 348.973 933.976 351.89 931.182 354.321L931.077 501.301C910.74 501.027 890 501.229 869.63 501.227L869.736 243.433Z"/><path fill="#1C1917" d="M931.191 301.006C934.893 302.381 938.764 299.34 943.898 301.999L931.152 312.34L931.191 301.006Z"/><path fill="#EA9B27" d="M465.11 121.256C477.7 120.267 486.552 120.132 499.022 123.974C518.446 130.028 534.642 143.6 544 161.665C553.459 179.858 555.222 201.086 548.894 220.591C542.79 239.717 529.306 255.618 511.434 264.765C488.765 276.292 469.634 274.079 446.682 266.563L410.527 284.949C413.659 272.365 416.253 257.432 418.802 244.57C380.265 233.039 340.755 218.201 302.255 206.087C270.034 195.95 270.425 199.187 243.763 212.865C226.381 221.782 187.217 224.792 168.762 217.27C148.182 208.882 136.167 199.406 126.312 179.251C135.682 185.574 142.248 189.409 152.741 193.488C207.165 213.069 223.458 178.001 270.457 176.88C310.985 175.913 349.307 220.066 390.243 183.764C351.74 192.657 336.744 180.798 302.247 167.265C263.749 152.162 237.885 163.109 203.369 178.611C215.737 163.562 229.655 151.291 248.011 144.131C292.901 124.573 332.255 169.793 376.581 160.535C411.778 153.183 427.57 129.22 465.11 121.256Z"/><path fill="#C94B22" d="M472.491 146.25C475.008 145.887 480.432 145.978 482.982 146.16C496.143 147.18 508.355 153.404 516.915 163.453C525.91 174.164 530.283 188.009 529.071 201.944C527.777 215.417 521.172 227.82 510.715 236.414C497.871 247.001 484.624 249.142 468.588 247.552C464.012 246.524 460.429 245.018 456.079 243.323L430.436 256.312C433.002 247.41 435.193 238.012 437.426 228.983C431.9 220.912 428.425 214.556 426.88 204.677C424.863 191.23 428.288 177.532 436.399 166.617C445.671 154.085 457.441 148.451 472.491 146.25Z"/><path fill="#EFDEC4" d="M1387.7 295.494C1414.8 295.392 1441.9 295.498 1469 295.812C1478.59 302.501 1496.34 319.38 1505.58 327.707C1506.14 337.075 1505.77 350.204 1505.78 359.851L1446.91 359.906C1447.1 352.03 1448.45 348.344 1441.4 343.419C1429.13 341.217 1397.79 342.792 1384.83 344.463C1380.25 345.053 1379.15 365.968 1382.54 369.385C1386.24 373.125 1398.55 372.209 1404.12 372.57L1460.51 375.884C1476.66 376.672 1493.26 393.884 1504.87 404.451C1511.06 410.09 1508.67 459.844 1507.88 468.707C1502.2 474.743 1476.41 497.025 1469.62 501.587L1440.5 501.641C1412.62 501.722 1384.74 501.653 1356.87 501.434C1348.6 496.114 1327.85 476.793 1319.72 469.529L1319.77 438.344L1380.04 438.324C1380.08 442.195 1379.41 448.251 1381.94 451.364C1383.98 453.888 1385.83 454.571 1388.89 454.866C1396.04 455.557 1440.63 456.298 1444.19 453.148C1446.2 451.362 1447.28 448.191 1447.44 445.574C1447.74 440.418 1448.44 430.726 1444.8 426.881C1441.53 423.411 1367.33 421.019 1357.49 420.863C1348.53 416.265 1326.96 396.905 1319.34 389.566C1318.37 373.506 1318.96 346.638 1319.32 330.067C1326.54 322.27 1349.01 302.268 1357.35 295.817C1367.47 295.591 1377.58 295.483 1387.7 295.494Z"/><path fill="#EFDEC4" d="M1768.11 295.676L1830.04 295.711L1830 398.73C1829.98 413.092 1829.57 428.881 1830.29 443.265C1830.47 446.796 1834.2 449.001 1837.13 451.152L1891.73 451.091C1894.28 449.082 1897.42 445.926 1899.84 443.636L1899.86 295.68L1961.83 295.668L1961.83 364.25L1961.77 501.195L1901.48 501.227L1901.38 484.403C1894.39 490.089 1883.06 499.759 1873.35 500.707C1852.8 502.688 1831.58 500.656 1810.9 501.161C1803.99 501.33 1769.71 471.117 1769.13 465.518C1767.26 447.453 1768.09 426.199 1768.09 407.863L1768.11 295.676Z"/><path fill="#EFDEC4" d="M730.508 295.507C753.301 295.431 776.093 295.543 798.884 295.842C807.338 300.924 822.17 314.998 830.012 321.76C841.941 332.045 838.504 356.016 838.187 372.241L777.763 372.357L777.678 353.284C775.812 351.239 773.189 348.842 771.157 346.871L720.607 346.863L713.912 353.384C713.922 364.211 712.516 441.922 715.412 446.424C724.095 454.079 745.366 450.994 756.653 451.349C781.576 452.133 778.017 443.316 777.775 424.645L819.943 424.686L838.305 424.671C838.984 474.973 840.115 469.447 799.651 501.269C786.501 502.155 765.028 501.68 751.344 501.641C732.306 501.586 708.532 502.142 690.058 500.91C682.86 496.01 659.083 474.367 652.456 467.719C651.33 452.874 650.488 334.981 654.14 329.29C658.149 323.043 686.107 297.878 692.605 296.595C704.603 294.226 718.282 295.492 730.508 295.507Z"/><path fill="#C94B22" d="M359.232 400.635L408.459 431.477C428.213 443.931 453.471 453.187 442.996 480.8C433.315 495.784 401.123 518.298 385.742 530.275L293.972 601.804C278.556 569.624 283.644 553.317 308.836 530.046C326.18 514.025 343.762 497.086 361.026 480.881C344.585 480.951 309.109 482.006 293.592 480.432C311.058 454.337 333.464 417.897 359.232 400.635Z"/><path fill="#EA9B27" d="M359.232 400.635L408.459 431.477C428.213 443.931 453.471 453.187 442.996 480.8C421.207 480.585 399.334 480.834 377.514 480.68C350.114 480.486 320.914 479.472 293.592 480.432C311.058 454.337 333.464 417.897 359.232 400.635Z"/><path fill="#EFDEC4" d="M1996.77 303.135L2058.32 303.07L2058.3 501.204L1996.42 501.236C1997.37 435.435 1996.09 369.05 1996.77 303.135Z"/><path fill="#C94B22" d="M451.339 305.816L457.293 316.316L480.691 356.995C491.146 350.52 501.506 343.893 511.769 337.116C539.763 318.875 561.825 301.568 590.185 330.989C566.442 348.426 542.866 366.089 519.459 383.974C507.09 393.451 494.312 403.998 481.283 412.635C479.968 413.506 478.08 414.205 476.57 414.547C465.217 417.174 457.461 408.57 451.496 400.09C439.696 383.313 428.029 366.325 416.358 349.405C420.845 344.287 435.891 325.517 438.945 322.666L451.339 305.816Z"/><path fill="#C94B22" d="M451.339 305.816L457.293 316.316C449.639 321.218 448.076 322.326 438.945 322.666L451.339 305.816Z"/><path fill="#EFDEC4" d="M202.41 361.659C204.458 363.894 212.56 435.151 213.674 443.98C247.912 436.955 282.191 430.137 316.511 423.525C301.681 444.877 285.533 466.515 270.224 487.61L256.679 506.525C222.312 488.199 187.38 466.458 152.85 447.549L152.804 430.068C167.707 411.584 187.926 381.537 202.41 361.659Z"/><path fill="#C94B22" d="M168.058 309.122C188.646 290.027 209.345 271.051 230.152 252.195C240.502 242.736 260.663 221.439 272.299 215.696C279.97 211.91 350.462 238.229 363.337 242.499C358.745 249.266 337.008 280.46 331.901 286.28C319.743 279.761 296.545 270.396 283.037 264.242C273.682 271.263 264.397 279.232 255.194 286.522C224.203 311.074 208.242 333.182 168.058 309.122Z"/><path fill="#EA9B27" d="M363.337 242.499C376.055 246.873 388.819 251.115 401.626 255.225C398.356 272.998 395.25 292.796 391.623 310.305C363.591 336.578 336.124 360.209 306.897 385.206C296.024 378.892 284.777 372.132 273.82 366.058C293.016 339.346 312.376 312.753 331.901 286.28C337.008 280.46 358.745 249.266 363.337 242.499Z"/><path fill="#C94B22" d="M188.941 484.754L199.661 491.124C213.702 499.016 227.635 507.1 241.454 515.374L122.725 632.02C110 590.08 114.731 575.986 141.218 544.006C153.712 528.921 170.498 508.897 181.989 493.139L188.941 484.754Z"/><path fill="#C94B22" d="M216.499 350.555C225.609 354.85 242.841 365.28 251.813 370.457C272.864 382.605 295.312 395.468 315.639 408.689L301.752 411.659C276.344 417.092 250.885 422.28 225.378 427.223C223.832 403.817 218.687 375.17 216.499 350.555Z"/><path fill="#EA9B27" d="M2020.21 225.827C2037.27 221.82 2054.34 232.445 2058.28 249.523C2062.21 266.601 2051.52 283.627 2034.43 287.496C2017.43 291.343 2000.52 280.724 1996.61 263.743C1992.69 246.762 2003.24 229.811 2020.21 225.827Z"/><path fill="#EA9B27" d="M445.526 283.028C446.13 283.398 445.97 283.555 446.344 284.517C414.344 339.758 383.591 366.226 333.376 402.998L327.417 398.956L319.298 393.63C344.42 372.405 369.674 351.447 393.397 328.593C406.2 316.258 418.456 302.046 431.334 289.746C432.624 288.514 443.185 284.03 445.526 283.028Z"/><path fill="#EA9B27" d="M144.45 230.582C149.75 231.574 159.501 235.23 166.335 236.557C189.634 241.083 205.582 237.274 227.597 231.842L218.392 240.128C208.014 250.048 201.175 259.81 185.2 256.953C167.815 253.843 154.961 244.461 144.45 230.582Z"/></svg>